<?xml version="1.0" encoding="UTF-8"?>
<svg id="uuid-14cc24df-b7e4-4e8d-bcd0-56d240393900" data-name="Layer 1" xmlns="http://www.w3.org/2000/svg" width="128" height="89" viewBox="0 0 128 89">
  <defs>
    <style>
      .uuid-11432a3f-269d-4b02-bf52-f73c74df86b3 {
        fill: #ffd684;
        stroke-width: 0px;
      }
    </style>
  </defs>
  <polygon class="uuid-11432a3f-269d-4b02-bf52-f73c74df86b3" points="128 44.5 103.22 19.72 103.22 38.5 44.5 38.5 44.5 50.5 103.22 50.5 103.22 69.28 128 44.5"/>
  <path class="uuid-11432a3f-269d-4b02-bf52-f73c74df86b3" d="M74.69,56.5c-4.78,12-16.51,20.5-30.19,20.5-17.92,0-32.5-14.58-32.5-32.5S26.58,12,44.5,12c13.68,0,25.41,8.5,30.19,20.5h12.66C82.11,13.75,64.92,0,44.5,0,19.92,0,0,19.92,0,44.5s19.92,44.5,44.5,44.5c20.42,0,37.61-13.75,42.85-32.5h-12.66Z"/>
</svg>