<?xml version="1.0" encoding="UTF-8" ?>
<svg version="1.1" width="128" height="128" xmlns="http://www.w3.org/2000/svg" shape-rendering="crispEdges">
<rect x="16" y="0" width="8" height="8" fill="#6F324E" />
<rect x="24" y="0" width="8" height="8" fill="#6F324E" />
<rect x="32" y="0" width="8" height="8" fill="#6F324E" />
<rect x="40" y="0" width="8" height="8" fill="#6F324E" />
<rect x="48" y="0" width="8" height="8" fill="#6F324E" />
<rect x="56" y="0" width="8" height="8" fill="#6F324E" />
<rect x="64" y="0" width="8" height="8" fill="#6F324E" />
<rect x="72" y="0" width="8" height="8" fill="#6F324E" />
<rect x="80" y="0" width="8" height="8" fill="#6F324E" />
<rect x="88" y="0" width="8" height="8" fill="#6F324E" />
<rect x="96" y="0" width="8" height="8" fill="#6F324E" />
<rect x="104" y="0" width="8" height="8" fill="#6F324E" />
<rect x="8" y="8" width="8" height="8" fill="#6F324E" />
<rect x="16" y="8" width="8" height="8" fill="#180C21" />
<rect x="24" y="8" width="8" height="8" fill="#180C21" />
<rect x="32" y="8" width="8" height="8" fill="#180C21" />
<rect x="40" y="8" width="8" height="8" fill="#180C21" />
<rect x="48" y="8" width="8" height="8" fill="#180C21" />
<rect x="56" y="8" width="8" height="8" fill="#180C21" />
<rect x="64" y="8" width="8" height="8" fill="#180C21" />
<rect x="72" y="8" width="8" height="8" fill="#180C21" />
<rect x="80" y="8" width="8" height="8" fill="#180C21" />
<rect x="88" y="8" width="8" height="8" fill="#180C21" />
<rect x="96" y="8" width="8" height="8" fill="#180C21" />
<rect x="104" y="8" width="8" height="8" fill="#180C21" />
<rect x="112" y="8" width="8" height="8" fill="#6F324E" />
<rect x="0" y="16" width="8" height="8" fill="#6F324E" />
<rect x="8" y="16" width="8" height="8" fill="#180C21" />
<rect x="16" y="16" width="8" height="8" fill="#180C21" />
<rect x="24" y="16" width="8" height="8" fill="#180C21" />
<rect x="32" y="16" width="8" height="8" fill="#180C21" />
<rect x="40" y="16" width="8" height="8" fill="#180C21" />
<rect x="48" y="16" width="8" height="8" fill="#180C21" />
<rect x="56" y="16" width="8" height="8" fill="#180C21" />
<rect x="64" y="16" width="8" height="8" fill="#180C21" />
<rect x="72" y="16" width="8" height="8" fill="#180C21" />
<rect x="80" y="16" width="8" height="8" fill="#180C21" />
<rect x="88" y="16" width="8" height="8" fill="#180C21" />
<rect x="96" y="16" width="8" height="8" fill="#180C21" />
<rect x="104" y="16" width="8" height="8" fill="#180C21" />
<rect x="112" y="16" width="8" height="8" fill="#180C21" />
<rect x="120" y="16" width="8" height="8" fill="#6F324E" />
<rect x="0" y="24" width="8" height="8" fill="#6F324E" />
<rect x="8" y="24" width="8" height="8" fill="#180C21" />
<rect x="16" y="24" width="8" height="8" fill="#180C21" />
<rect x="24" y="24" width="8" height="8" fill="#180C21" />
<rect x="32" y="24" width="8" height="8" fill="#180C21" />
<rect x="40" y="24" width="8" height="8" fill="#180C21" />
<rect x="48" y="24" width="8" height="8" fill="#180C21" />
<rect x="56" y="24" width="8" height="8" fill="#180C21" />
<rect x="64" y="24" width="8" height="8" fill="#180C21" />
<rect x="72" y="24" width="8" height="8" fill="#180C21" />
<rect x="80" y="24" width="8" height="8" fill="#180C21" />
<rect x="88" y="24" width="8" height="8" fill="#180C21" />
<rect x="96" y="24" width="8" height="8" fill="#180C21" />
<rect x="104" y="24" width="8" height="8" fill="#180C21" />
<rect x="112" y="24" width="8" height="8" fill="#180C21" />
<rect x="120" y="24" width="8" height="8" fill="#6F324E" />
<rect x="0" y="32" width="8" height="8" fill="#6F324E" />
<rect x="8" y="32" width="8" height="8" fill="#180C21" />
<rect x="16" y="32" width="8" height="8" fill="#180C21" />
<rect x="24" y="32" width="8" height="8" fill="#180C21" />
<rect x="32" y="32" width="8" height="8" fill="#FFF4B0" />
<rect x="40" y="32" width="8" height="8" fill="#FFF4B0" />
<rect x="48" y="32" width="8" height="8" fill="#FFF4B0" />
<rect x="56" y="32" width="8" height="8" fill="#FFF4B0" />
<rect x="64" y="32" width="8" height="8" fill="#180C21" />
<rect x="72" y="32" width="8" height="8" fill="#FFF4B0" />
<rect x="80" y="32" width="8" height="8" fill="#FFF4B0" />
<rect x="88" y="32" width="8" height="8" fill="#180C21" />
<rect x="96" y="32" width="8" height="8" fill="#180C21" />
<rect x="104" y="32" width="8" height="8" fill="#180C21" />
<rect x="112" y="32" width="8" height="8" fill="#180C21" />
<rect x="120" y="32" width="8" height="8" fill="#6F324E" />
<rect x="0" y="40" width="8" height="8" fill="#6F324E" />
<rect x="8" y="40" width="8" height="8" fill="#180C21" />
<rect x="16" y="40" width="8" height="8" fill="#180C21" />
<rect x="24" y="40" width="8" height="8" fill="#180C21" />
<rect x="32" y="40" width="8" height="8" fill="#FFF4B0" />
<rect x="40" y="40" width="8" height="8" fill="#FFF4B0" />
<rect x="48" y="40" width="8" height="8" fill="#FFF4B0" />
<rect x="56" y="40" width="8" height="8" fill="#FFF4B0" />
<rect x="64" y="40" width="8" height="8" fill="#FFF4B0" />
<rect x="72" y="40" width="8" height="8" fill="#FFF4B0" />
<rect x="80" y="40" width="8" height="8" fill="#180C21" />
<rect x="88" y="40" width="8" height="8" fill="#FFF4B0" />
<rect x="96" y="40" width="8" height="8" fill="#FFF4B0" />
<rect x="104" y="40" width="8" height="8" fill="#180C21" />
<rect x="112" y="40" width="8" height="8" fill="#180C21" />
<rect x="120" y="40" width="8" height="8" fill="#6F324E" />
<rect x="0" y="48" width="8" height="8" fill="#6F324E" />
<rect x="8" y="48" width="8" height="8" fill="#180C21" />
<rect x="16" y="48" width="8" height="8" fill="#180C21" />
<rect x="24" y="48" width="8" height="8" fill="#180C21" />
<rect x="32" y="48" width="8" height="8" fill="#FFF4B0" />
<rect x="40" y="48" width="8" height="8" fill="#FFF4B0" />
<rect x="48" y="48" width="8" height="8" fill="#FFF4B0" />
<rect x="56" y="48" width="8" height="8" fill="#180C21" />
<rect x="64" y="48" width="8" height="8" fill="#FFF4B0" />
<rect x="72" y="48" width="8" height="8" fill="#FFF4B0" />
<rect x="80" y="48" width="8" height="8" fill="#FFF4B0" />
<rect x="88" y="48" width="8" height="8" fill="#FFF4B0" />
<rect x="96" y="48" width="8" height="8" fill="#FFF4B0" />
<rect x="104" y="48" width="8" height="8" fill="#180C21" />
<rect x="112" y="48" width="8" height="8" fill="#180C21" />
<rect x="120" y="48" width="8" height="8" fill="#6F324E" />
<rect x="0" y="56" width="8" height="8" fill="#6F324E" />
<rect x="8" y="56" width="8" height="8" fill="#180C21" />
<rect x="16" y="56" width="8" height="8" fill="#180C21" />
<rect x="24" y="56" width="8" height="8" fill="#180C21" />
<rect x="32" y="56" width="8" height="8" fill="#180C21" />
<rect x="40" y="56" width="8" height="8" fill="#FFF4B0" />
<rect x="48" y="56" width="8" height="8" fill="#FFF4B0" />
<rect x="56" y="56" width="8" height="8" fill="#180C21" />
<rect x="64" y="56" width="8" height="8" fill="#180C21" />
<rect x="72" y="56" width="8" height="8" fill="#180C21" />
<rect x="80" y="56" width="8" height="8" fill="#180C21" />
<rect x="88" y="56" width="8" height="8" fill="#180C21" />
<rect x="96" y="56" width="8" height="8" fill="#180C21" />
<rect x="104" y="56" width="8" height="8" fill="#180C21" />
<rect x="112" y="56" width="8" height="8" fill="#180C21" />
<rect x="120" y="56" width="8" height="8" fill="#6F324E" />
<rect x="0" y="64" width="8" height="8" fill="#6F324E" />
<rect x="8" y="64" width="8" height="8" fill="#180C21" />
<rect x="16" y="64" width="8" height="8" fill="#180C21" />
<rect x="24" y="64" width="8" height="8" fill="#180C21" />
<rect x="32" y="64" width="8" height="8" fill="#FFF4B0" />
<rect x="40" y="64" width="8" height="8" fill="#FFF4B0" />
<rect x="48" y="64" width="8" height="8" fill="#180C21" />
<rect x="56" y="64" width="8" height="8" fill="#180C21" />
<rect x="64" y="64" width="8" height="8" fill="#180C21" />
<rect x="72" y="64" width="8" height="8" fill="#180C21" />
<rect x="80" y="64" width="8" height="8" fill="#180C21" />
<rect x="88" y="64" width="8" height="8" fill="#180C21" />
<rect x="96" y="64" width="8" height="8" fill="#180C21" />
<rect x="104" y="64" width="8" height="8" fill="#180C21" />
<rect x="112" y="64" width="8" height="8" fill="#180C21" />
<rect x="120" y="64" width="8" height="8" fill="#6F324E" />
<rect x="0" y="72" width="8" height="8" fill="#6F324E" />
<rect x="8" y="72" width="8" height="8" fill="#180C21" />
<rect x="16" y="72" width="8" height="8" fill="#180C21" />
<rect x="24" y="72" width="8" height="8" fill="#180C21" />
<rect x="32" y="72" width="8" height="8" fill="#FFF4B0" />
<rect x="40" y="72" width="8" height="8" fill="#FFF4B0" />
<rect x="48" y="72" width="8" height="8" fill="#FFF4B0" />
<rect x="56" y="72" width="8" height="8" fill="#180C21" />
<rect x="64" y="72" width="8" height="8" fill="#180C21" />
<rect x="72" y="72" width="8" height="8" fill="#180C21" />
<rect x="80" y="72" width="8" height="8" fill="#CE6B40" />
<rect x="88" y="72" width="8" height="8" fill="#180C21" />
<rect x="96" y="72" width="8" height="8" fill="#180C21" />
<rect x="104" y="72" width="8" height="8" fill="#180C21" />
<rect x="112" y="72" width="8" height="8" fill="#180C21" />
<rect x="120" y="72" width="8" height="8" fill="#6F324E" />
<rect x="0" y="80" width="8" height="8" fill="#6F324E" />
<rect x="8" y="80" width="8" height="8" fill="#180C21" />
<rect x="16" y="80" width="8" height="8" fill="#180C21" />
<rect x="24" y="80" width="8" height="8" fill="#180C21" />
<rect x="32" y="80" width="8" height="8" fill="#FFF4B0" />
<rect x="40" y="80" width="8" height="8" fill="#FFF4B0" />
<rect x="48" y="80" width="8" height="8" fill="#FFF4B0" />
<rect x="56" y="80" width="8" height="8" fill="#180C21" />
<rect x="64" y="80" width="8" height="8" fill="#180C21" />
<rect x="72" y="80" width="8" height="8" fill="#CE6B40" />
<rect x="80" y="80" width="8" height="8" fill="#180C21" />
<rect x="88" y="80" width="8" height="8" fill="#CE6B40" />
<rect x="96" y="80" width="8" height="8" fill="#180C21" />
<rect x="104" y="80" width="8" height="8" fill="#180C21" />
<rect x="112" y="80" width="8" height="8" fill="#180C21" />
<rect x="120" y="80" width="8" height="8" fill="#6F324E" />
<rect x="0" y="88" width="8" height="8" fill="#6F324E" />
<rect x="8" y="88" width="8" height="8" fill="#180C21" />
<rect x="16" y="88" width="8" height="8" fill="#180C21" />
<rect x="24" y="88" width="8" height="8" fill="#180C21" />
<rect x="32" y="88" width="8" height="8" fill="#FFF4B0" />
<rect x="40" y="88" width="8" height="8" fill="#FFF4B0" />
<rect x="48" y="88" width="8" height="8" fill="#FFF4B0" />
<rect x="56" y="88" width="8" height="8" fill="#180C21" />
<rect x="64" y="88" width="8" height="8" fill="#180C21" />
<rect x="72" y="88" width="8" height="8" fill="#180C21" />
<rect x="80" y="88" width="8" height="8" fill="#CE6B40" />
<rect x="88" y="88" width="8" height="8" fill="#180C21" />
<rect x="96" y="88" width="8" height="8" fill="#180C21" />
<rect x="104" y="88" width="8" height="8" fill="#180C21" />
<rect x="112" y="88" width="8" height="8" fill="#180C21" />
<rect x="120" y="88" width="8" height="8" fill="#6F324E" />
<rect x="0" y="96" width="8" height="8" fill="#6F324E" />
<rect x="8" y="96" width="8" height="8" fill="#180C21" />
<rect x="16" y="96" width="8" height="8" fill="#180C21" />
<rect x="24" y="96" width="8" height="8" fill="#180C21" />
<rect x="32" y="96" width="8" height="8" fill="#180C21" />
<rect x="40" y="96" width="8" height="8" fill="#FFF4B0" />
<rect x="48" y="96" width="8" height="8" fill="#FFF4B0" />
<rect x="56" y="96" width="8" height="8" fill="#180C21" />
<rect x="64" y="96" width="8" height="8" fill="#180C21" />
<rect x="72" y="96" width="8" height="8" fill="#180C21" />
<rect x="80" y="96" width="8" height="8" fill="#180C21" />
<rect x="88" y="96" width="8" height="8" fill="#180C21" />
<rect x="96" y="96" width="8" height="8" fill="#180C21" />
<rect x="104" y="96" width="8" height="8" fill="#180C21" />
<rect x="112" y="96" width="8" height="8" fill="#180C21" />
<rect x="120" y="96" width="8" height="8" fill="#6F324E" />
<rect x="0" y="104" width="8" height="8" fill="#6F324E" />
<rect x="8" y="104" width="8" height="8" fill="#180C21" />
<rect x="16" y="104" width="8" height="8" fill="#180C21" />
<rect x="24" y="104" width="8" height="8" fill="#180C21" />
<rect x="32" y="104" width="8" height="8" fill="#FFF4B0" />
<rect x="40" y="104" width="8" height="8" fill="#FFF4B0" />
<rect x="48" y="104" width="8" height="8" fill="#180C21" />
<rect x="56" y="104" width="8" height="8" fill="#180C21" />
<rect x="64" y="104" width="8" height="8" fill="#180C21" />
<rect x="72" y="104" width="8" height="8" fill="#180C21" />
<rect x="80" y="104" width="8" height="8" fill="#180C21" />
<rect x="88" y="104" width="8" height="8" fill="#180C21" />
<rect x="96" y="104" width="8" height="8" fill="#180C21" />
<rect x="104" y="104" width="8" height="8" fill="#180C21" />
<rect x="112" y="104" width="8" height="8" fill="#180C21" />
<rect x="120" y="104" width="8" height="8" fill="#6F324E" />
<rect x="8" y="112" width="8" height="8" fill="#6F324E" />
<rect x="16" y="112" width="8" height="8" fill="#180C21" />
<rect x="24" y="112" width="8" height="8" fill="#180C21" />
<rect x="32" y="112" width="8" height="8" fill="#FFF4B0" />
<rect x="40" y="112" width="8" height="8" fill="#FFF4B0" />
<rect x="48" y="112" width="8" height="8" fill="#FFF4B0" />
<rect x="56" y="112" width="8" height="8" fill="#180C21" />
<rect x="64" y="112" width="8" height="8" fill="#180C21" />
<rect x="72" y="112" width="8" height="8" fill="#180C21" />
<rect x="80" y="112" width="8" height="8" fill="#180C21" />
<rect x="88" y="112" width="8" height="8" fill="#180C21" />
<rect x="96" y="112" width="8" height="8" fill="#180C21" />
<rect x="104" y="112" width="8" height="8" fill="#180C21" />
<rect x="112" y="112" width="8" height="8" fill="#6F324E" />
<rect x="16" y="120" width="8" height="8" fill="#6F324E" />
<rect x="24" y="120" width="8" height="8" fill="#6F324E" />
<rect x="32" y="120" width="8" height="8" fill="#6F324E" />
<rect x="40" y="120" width="8" height="8" fill="#6F324E" />
<rect x="48" y="120" width="8" height="8" fill="#6F324E" />
<rect x="56" y="120" width="8" height="8" fill="#6F324E" />
<rect x="64" y="120" width="8" height="8" fill="#6F324E" />
<rect x="72" y="120" width="8" height="8" fill="#6F324E" />
<rect x="80" y="120" width="8" height="8" fill="#6F324E" />
<rect x="88" y="120" width="8" height="8" fill="#6F324E" />
<rect x="96" y="120" width="8" height="8" fill="#6F324E" />
<rect x="104" y="120" width="8" height="8" fill="#6F324E" />
</svg>