<?xml version="1.0" encoding="utf-8"?>
<svg version="1.1" id="Layer_1" xmlns="http://www.w3.org/2000/svg" xmlns:xlink="http://www.w3.org/1999/xlink" x="0px" y="0px"
	 viewBox="0 0 16 16" style="enable-background:new 0 0 16 16;" xml:space="preserve">
<style type="text/css">
	.st0{fill:url(#SVGID_1_);}
	.st1{fill:#E0E0E0;}
</style>
<linearGradient id="SVGID_1_" gradientUnits="userSpaceOnUse" x1="6.9998" y1="17" x2="6.9998" y2="3" gradientTransform="matrix(1 0 0 -1 0 18)">
	<stop  offset="0" style="stop-color:#FF5F5F"/>
	<stop  offset="0.5" style="stop-color:#E1DA5B"/>
	<stop  offset="1" style="stop-color:#5FFF97"/>
</linearGradient>
<path class="st0" d="M13,2c0-0.6-0.4-1-1-1L4.8,3C4.3,3.1,4,3.5,4,4v5.6c-1.4-0.3-2.7,0.6-2.9,1.9s0.6,2.7,1.9,2.9
	c1.4,0.3,2.7-0.6,2.9-1.9C6,12.3,6,12.2,6,12V4.8l5-1.4v3.2l2-1V2z"/>
<path class="st1" d="M15,10.9l-0.9-0.2c-0.1-0.2-0.1-0.4-0.2-0.5l0.5-0.8c0-0.1,0-0.1,0-0.2l-0.6-0.6c-0.1-0.1-0.1-0.1-0.2,0
	l-0.8,0.5c-0.2-0.1-0.3-0.2-0.5-0.2L12.1,8c0-0.1-0.1-0.1-0.2-0.1h-0.9C11.1,7.9,11,8,11,8l-0.1,0.9c-0.2,0.1-0.4,0.1-0.5,0.2
	L9.6,8.6c-0.1,0-0.1,0-0.2,0L8.7,9.2c-0.1,0.1-0.1,0.1,0,0.2l0.5,0.8c-0.1,0.2-0.2,0.4-0.2,0.5l-0.9,0.2C8.1,10.9,8,11,8,11v0.9
	C8,12,8.1,12,8.1,12.1L9,12.2c0.1,0.2,0.1,0.4,0.2,0.5l-0.5,0.7c0,0.1,0,0.1,0,0.2l0.6,0.6c0.1,0.1,0.1,0.1,0.2,0l0.8-0.5
	c0.2,0.1,0.3,0.2,0.5,0.2l0.2,0.9c0,0.1,0.1,0.1,0.2,0.1H12c0.1,0,0.1-0.1,0.2-0.1l0.2-0.9c0.2-0.1,0.4-0.1,0.5-0.2l0.8,0.5
	c0.1,0,0.1,0,0.2,0l0.6-0.6c0.1-0.1,0.1-0.1,0-0.2l-0.5-0.8c0.1-0.2,0.2-0.3,0.2-0.5l0.9-0.2c0.1,0,0.1-0.1,0.1-0.2V11
	C15.1,11,15.1,10.9,15,10.9z M11.6,12.6c-0.6,0-1.1-0.5-1.1-1.1c0-0.6,0.5-1.1,1.1-1.1s1.1,0.5,1.1,1.1
	C12.7,12.1,12.2,12.6,11.6,12.6z"/>
</svg>
